# Blender 5.0.1
# www.blender.org
mtllib arm_R.mtl
o arm_R
v -0.041463 0.056039 0.037023
v -0.614935 -0.332753 0.070518
v -0.034983 0.045281 -0.054656
v -0.604515 -0.350054 -0.076916
v 0.036665 -0.047519 0.054696
v -0.444191 -0.489930 0.101029
v 0.043144 -0.058277 -0.036982
v -0.433771 -0.507231 -0.046404
v 0.015443 -0.021559 -0.043248
v -0.010599 0.012960 -0.049139
v -0.551225 -0.399110 -0.067393
v -0.494310 -0.451503 -0.057222
v -0.017079 0.023718 0.042539
v 0.008964 -0.010801 0.048430
v -0.504730 -0.434202 0.090211
v -0.561645 -0.381809 0.080041
v -0.037167 0.048906 -0.023761
v -0.039327 0.052493 0.006798
v -0.611500 -0.338457 0.021912
v -0.608026 -0.344224 -0.027232
v 0.038801 -0.051065 0.024472
v 0.040961 -0.054652 -0.006087
v -0.437283 -0.501401 0.003280
v -0.440756 -0.495634 0.052424
v -0.480238 -0.478885 -0.026177
v -0.489076 -0.481305 0.068095
v -0.554429 -0.372105 -0.037096
v -0.563447 -0.361538 0.057617
v -0.012783 0.016585 -0.018245
v -0.014943 0.020172 0.012315
v 0.013260 -0.017934 -0.012354
v 0.011100 -0.014348 0.018206
v -0.537120 -0.487939 -0.005356
v -0.540593 -0.482172 0.043788
v -0.594035 -0.435547 -0.015527
v -0.597508 -0.429780 0.033618
vn -0.5614 0.8164 -0.1355
vn 0.1006 -0.0871 -0.9911
vn 0.1009 -0.0869 -0.9911
vn 0.6780 -0.7230 0.1328
vn 0.6780 -0.7230 0.1327
vn -0.0397 0.1448 0.9887
vn -0.0399 0.1446 0.9887
vn 0.7994 0.6007 -0.0140
vn -0.5143 -0.8377 -0.1836
vn -0.4713 -0.7630 0.4425
vn -0.7967 -0.5943 0.1103
vn -0.0390 0.1454 0.9886
vn -0.0393 0.1452 0.9886
vn 0.1000 -0.0877 -0.9911
vn 0.1002 -0.0875 -0.9911
vn 0.1002 -0.0876 -0.9911
vn -0.7736 -0.6195 0.1332
vn -0.5604 -0.8156 -0.1444
vn -0.3730 -0.9278 -0.0104
vn -0.5613 -0.7811 0.2735
vn -0.4596 -0.8860 0.0607
vn -0.3729 -0.1751 0.9112
vn -0.6804 -0.7318 0.0378
vn -0.8643 0.4859 -0.1302
vn 0.0901 -0.9955 0.0310
vn -0.1968 -0.2863 -0.9377
vt 0.375000 0.165753
vt 0.375000 0.250000
vt 0.625000 0.250000
vt 0.625000 0.165753
vt 0.375000 0.411360
vt 0.375000 0.500000
vt 0.625000 0.500000
vt 0.625000 0.411360
vt 0.375000 0.667581
vt 0.375000 0.750000
vt 0.625000 0.750000
vt 0.625000 0.667581
vt 0.375000 0.921973
vt 0.375000 1.000000
vt 0.625000 1.000000
vt 0.625000 0.921973
vt 0.286360 0.667581
vt 0.286360 0.750000
vt 0.796973 0.667581
vt 0.796973 0.750000
vt 0.875000 0.750000
vt 0.875000 0.667581
vt 0.713640 0.750000
vt 0.713640 0.667581
vt 0.125000 0.667581
vt 0.125000 0.750000
vt 0.203027 0.750000
vt 0.203027 0.667581
vt 0.375000 0.838640
vt 0.625000 0.838640
vt 0.375000 0.328027
vt 0.625000 0.328026
vt 0.203027 0.500000
vt 0.203026 0.584247
vt 0.286360 0.584247
vt 0.286360 0.500000
vt 0.125000 0.500000
vt 0.125000 0.584247
vt 0.713640 0.500000
vt 0.713640 0.584247
vt 0.796973 0.584247
vt 0.796973 0.500000
vt 0.625000 0.584247
vt 0.875000 0.584247
vt 0.875000 0.500000
vt 0.375000 0.584247
vt 0.375000 0.000000
vt 0.375000 0.082419
vt 0.625000 0.082419
vt 0.625000 0.000000
s 1
usemtl Material.003
f 17/1/1 3/2/1 4/3/1 20/4/1
f 9/5/2 7/6/3 8/7/3 12/8/2
f 21/9/4 5/10/5 6/11/5 24/12/4
f 13/13/6 1/14/7 2/15/7 16/16/6
f 32/17/8 14/18/8 5/10/8 21/9/8
f 28/19/9 16/20/9 2/21/9 19/22/9
f 24/12/10 6/11/10 15/23/10 26/24/10
f 26/24/11 15/23/11 16/20/11 28/19/11
f 18/25/8 1/26/8 13/27/8 30/28/8
f 30/28/8 13/27/8 14/18/8 32/17/8
f 5/10/12 14/29/13 15/30/13 6/11/12
f 14/29/13 13/13/6 16/16/6 15/30/13
f 3/2/14 10/31/15 11/32/16 4/3/14
f 10/31/15 9/5/2 12/8/2 11/32/16
f 10/33/8 29/34/8 31/35/8 9/36/8
f 29/34/8 30/28/8 32/17/8 31/35/8
f 3/37/8 17/38/8 29/34/8 10/33/8
f 17/38/8 18/25/8 30/28/8 29/34/8
f 12/39/17 25/40/17 27/41/17 11/42/17
f 8/7/18 23/43/18 25/40/18 12/39/18
f 23/43/19 24/12/19 26/24/19 25/40/19
f 11/42/20 27/41/20 20/44/20 4/45/20
f 27/41/21 28/19/21 19/22/21 20/44/21
f 9/36/8 31/35/8 22/46/8 7/6/8
f 31/35/8 32/17/8 21/9/8 22/46/8
f 7/6/4 22/46/4 23/43/4 8/7/4
f 22/46/4 21/9/4 24/12/4 23/43/4
f 1/47/1 18/48/1 19/49/1 2/50/1
f 18/48/1 17/1/1 20/4/1 19/49/1
usemtl Material.004
f 28/19/22 36/19/22 34/24/22 26/24/22
f 33/40/23 34/24/23 36/19/23 35/41/23
f 27/41/24 35/41/24 36/19/24 28/19/24
f 26/24/25 34/24/25 33/40/25 25/40/25
f 25/40/26 33/40/26 35/41/26 27/41/26
